<svg width="460.668" height="383.686" xmlns="http://www.w3.org/2000/svg"><path style="fill:#000" d="M101.303 406.803c-1.857-.897-5.303-6.229-5.303-8.204 0-.33 1.35-.599 3-.599s3 .418 3 .929c0 1.894 3.233 4.071 6.048 4.071 5.08 0 7.694-7.068 3.11-8.409-.912-.266-3.332-.78-5.377-1.143-9.626-1.705-12.863-13.163-5.667-20.057 2.525-2.419 3.864-2.895 8.202-2.913 2.851-.012 5.79-.403 6.53-.868.846-.532 1.929-.264 2.914.721 1.311 1.312 1.352 1.83.246 3.161-1 1.206-1.04 1.874-.164 2.75 2.004 2.004 1.43 10.201-.858 12.272l-2.015 1.824 2.015 2.145c3.112 3.312 2.703 8.984-.907 12.594-2.453 2.453-3.7 2.912-7.75 2.855-2.655-.037-5.816-.545-7.024-1.129zm11.372-21.43c3.218-4.91-1.657-11.47-7.012-9.435-4.55 1.73-4.852 10.317-.42 11.956 3.04 1.125 5.616.251 7.432-2.52zm284.248 19.704c-3.66-3.66-3.92-7.077-.538-7.077 1.44 0 3.034.99 4.023 2.5 2.963 4.522 11.16 2.335 10.395-2.773-.365-2.434-2.028-3.414-7.203-4.247-2.35-.378-5.034-1.76-6.75-3.477-2.364-2.364-2.85-3.691-2.85-7.791 0-3.44.612-5.72 2.016-7.505 2.407-3.06 8.102-5.145 11.633-4.259 1.425.358 3.16.126 3.947-.527 1.987-1.65 4.724.75 4 3.51-.298 1.138-.038 3.464.577 5.168 1.322 3.66.503 7.725-2.079 10.307-1.805 1.805-1.805 1.897-.002 3.441 2.772 2.374 3.303 6.018 1.447 9.93-1.959 4.127-5.071 5.723-11.163 5.723-3.673 0-5.083-.553-7.453-2.923zm13.47-20.296c2.204-6.164-3.017-11.568-8.012-8.295-1.292.847-2.62 2.617-2.95 3.934-1.786 7.114 8.514 11.212 10.963 4.361zm-333.06 9.144c-10.114-3-11.26-17.884-1.726-22.409 3.979-1.888 6.514-1.91 10.859-.095 3.674 1.535 6.534 5.925 6.534 10.03 0 2.543-.02 2.549-9 2.549-7.237 0-9 .287-9 1.465 0 2.428 3.94 3.82 9.083 3.212 3.6-.427 5.08-.185 6.053.987 1.074 1.294.972 1.784-.615 2.944-1.047.766-2.605 1.398-3.462 1.406-.858.008-2.459.202-3.559.432-1.1.23-3.425-.004-5.167-.52zm9.483-15.64c-.526-2.731-6.232-3.898-9.285-1.898-3.989 2.614-3.01 3.613 3.542 3.613 5.198 0 6.026-.247 5.743-1.715zm44.2 15.69c-7.17-1.683-10.953-10.32-7.415-16.928 2.485-4.641 8.174-7.5 13.093-6.577 5.118.96 9.306 5.44 9.306 9.953V384h-9c-4.95 0-9 .38-9 .845 0 .465.893 1.653 1.985 2.641 1.573 1.424 3.008 1.675 6.924 1.211 3.772-.447 5.244-.218 6.227.967 1.074 1.294.972 1.784-.615 2.944-1.047.766-2.68 1.392-3.63 1.392-.95 0-2.327.178-3.06.396-.732.217-2.899.028-4.815-.422zm9.02-15.907c-.569-1.063-1.968-2.229-3.109-2.591-2.466-.783-7.56 1.123-8.324 3.115-.43 1.122.781 1.408 5.964 1.408 6.118 0 6.442-.115 5.47-1.932zm33.385 15.513c-3.45-1.503-6.421-6.746-6.421-11.334 0-4.452 3.91-9.519 8.61-11.157 3.605-1.256 4.414-1.224 7.453.292 2.122 1.058 3.54 1.307 3.757.66.19-.573 1.434-1.042 2.763-1.042 2.416 0 2.417.006 2.417 11.5s-.001 11.5-2.417 11.5c-1.329 0-2.575-.477-2.77-1.06-.228-.684-1.41-.509-3.333.494-3.607 1.88-5.998 1.915-10.059.147zm11.008-6.152c2.055-2.056 2.01-7.287-.084-9.6-2.378-2.628-7.826-2.408-9.788.394-2.023 2.888-1.982 6.65.098 8.948 2.045 2.26 7.624 2.407 9.774.258zm241.96 6.59c-6.195-2.502-8.743-13.757-4.373-19.312 3.764-4.785 10.948-5.697 15.234-1.934 1.58 1.388 1.75 1.377 1.75-.118 0-1.099.84-1.655 2.5-1.655h2.5v23h-2.5c-1.607 0-2.5-.562-2.5-1.573 0-1.303-.45-1.218-2.635.5-2.741 2.157-6.362 2.553-9.977 1.093zm11.346-8.14c.94-1.972.98-3.398.158-5.756-2.701-7.748-14.698-3.593-12.296 4.26 1.168 3.819 2.57 4.728 6.81 4.417 3.263-.24 4.328-.824 5.328-2.921zM44 378.332c-3.575-8.654-6.65-16.094-6.833-16.533-.184-.44 1.218-.799 3.114-.799 3.445 0 3.45.008 7.458 10.25 2.206 5.638 4.334 11.296 4.727 12.575.394 1.28 1.013 2.032 1.375 1.673.363-.36 2.698-5.906 5.19-12.326l4.532-11.672 3.611-.304 3.612-.304-6.8 16.304c-6.763 16.212-6.82 16.306-10.144 16.587l-3.342.284Zm109.557 13.445c-1.037-1.48-1.557-4.484-1.557-9 0-6.562-.08-6.777-2.5-6.777-2 0-2.5-.5-2.5-2.5s.5-2.5 2.5-2.5c2.111 0 2.5-.467 2.5-3s.389-3 2.5-3c2.111 0 2.5.467 2.5 3 0 2.762.278 3 3.5 3 3.067 0 3.5.31 3.5 2.5s-.433 2.5-3.5 2.5H157l.015 5.25c.018 6.153.642 7.425 3.876 7.9 1.366.2 2.746 1.315 3.218 2.6.786 2.14.587 2.25-4.085 2.25-3.94 0-5.218-.439-6.467-2.223zM197 382.5V371h2.5c1.375 0 2.5.423 2.5.94 0 .518 1.238.296 2.75-.493 3.259-1.7 4.287-1.764 7.676-.475 2.27.863 2.433 1.243 1.455 3.39-.947 2.08-1.617 2.349-4.783 1.924-5.057-.678-6.3 1.172-6.882 10.25-.452 7.05-.61 7.464-2.848 7.464-2.354 0-2.368-.07-2.368-11.5Zm20 0V371h6v23h-6zm13.997 8.65c-6.114-6.113-4.493-15.698 3.296-19.503 7.454-3.641 16.707 1.22 16.707 8.776V384h-9c-4.95 0-9 .38-9 .845 0 .465.893 1.653 1.985 2.641 1.57 1.42 3.01 1.675 6.89 1.215 3.249-.385 5.5-.148 6.66.701 1.64 1.199 1.599 1.39-.613 2.94-1.55 1.086-4.388 1.658-8.221 1.658-5.103 0-6.22-.366-8.704-2.85zm14.04-13.082c-2.005-3.745-9.085-3.715-11.099.047-.94 1.758-.565 1.885 5.562 1.885 6.184 0 6.51-.114 5.536-1.932zM255 382.5c0-11.333.033-11.5 2.3-11.5 1.265 0 2.792.492 3.393 1.093.79.79 1.657.79 3.134 0 3.755-2.01 8.12-1.3 11.25 1.83 2.776 2.776 2.923 3.354 2.923 11.5 0 8.482-.028 8.577-2.5 8.577-2.398 0-2.5-.254-2.515-6.25-.019-8.028-1.55-11.154-5.662-11.556-4.591-.45-6.323 2.572-6.323 11.029V394h-6zm43.5 10.345c-3.262-1.784-4.5-3.998-4.5-8.046 0-2.564.648-4.374 1.974-5.509 1.852-1.586 1.87-1.804.3-3.54-2.634-2.91-2.14-8.338 1.049-11.527 2.45-2.45 3.43-2.723 9.786-2.723 6.5 0 7.257.224 9.478 2.806 1.327 1.543 2.413 3.455 2.413 4.25 0 2.152-4.662 1.782-7-.556-2.554-2.554-8.106-2.645-10.345-.171-4.181 4.62-.066 7.171 11.568 7.171 8.695 0 8.777.023 8.777 2.5 0 1.556-.567 2.5-1.5 2.5-.992 0-1.5.992-1.5 2.929 0 1.61.675 3.603 1.5 4.428 1.934 1.934 1.985 6.643.071 6.643-.785 0-2.131-.703-2.99-1.563-1.418-1.417-1.772-1.417-3.795 0-2.599 1.82-12.233 2.078-15.286.408zM312 387c1.1-1.1 2-3.125 2-4.5 0-2.38-.28-2.5-5.8-2.5-6.244 0-8.2 1.11-8.2 4.65 0 4.408 8.314 6.036 12 2.35zm34.99 4.75c-.533-1.238-3.636-8.687-6.895-16.555l-5.927-14.306 3.57.306c3.535.302 3.606.4 7.445 10.305 6.592 17.01 5.355 16.757 11.01 2.25l4.97-12.75h3.502c1.926 0 3.352.36 3.168.799-.183.44-3.258 7.861-6.833 16.493l-6.5 15.695-3.271.006c-2.443.005-3.517-.563-4.24-2.243zm23.717.234c-5.666-4.457-5.71-14.477-.081-18.904 7.702-6.06 19.374-1.508 19.374 7.555V384h-8.333c-4.584 0-8.635.301-9.003.669-.367.368.077 1.493.989 2.5 1.809 1.999 7.303 2.46 10.287.863 1.353-.724 2.233-.498 3.498.899 1.595 1.763 1.562 1.955-.597 3.468-3.416 2.393-12.874 2.15-16.134-.415zM385 379.057c0-1.344-4.124-4.057-6.167-4.057-.947 0-2.984 1.11-4.527 2.468l-2.806 2.469 6.75.031c3.712.018 6.75-.392 6.75-.911zm64 3.443c0-11.494.001-11.5 2.417-11.5 1.329 0 2.62.563 2.869 1.25.362 1 .876 1 2.57 0 3.457-2.041 8.712-1.525 11.838 1.163 2.63 2.26 2.828 2.985 3.156 11.5l.349 9.087H466v-7.965c0-6.85-.27-8.11-1.934-9-5.98-3.2-9.066.133-9.066 9.794V394h-6zm-230.96-15.952c-1.922-2.316-.854-5.048 1.974-5.048 1.86 0 2.571.602 2.823 2.387.5 3.54-2.628 5.275-4.797 2.661zM79.7 363.5c1.42-2.979 2.172-3.5 5.043-3.5 3.637 0 3.628.646-.067 4.75-1.114 1.238-3.065 2.25-4.335 2.25-2.29 0-2.296-.029-.64-3.5zm53.151.25c1.456-2.309 2.933-3.34 5.099-3.563 3.657-.376 3.768.424.565 4.063-1.494 1.697-3.433 2.75-5.066 2.75h-2.646zm-26.018-33.325c-5.478-1.686-9.31-5.768-10.877-11.583-3.318-12.325 6.197-23.683 18.834-22.481 9.849.937 15.209 6.531 15.209 15.873V317h-13.107c-11.541 0-13.034.189-12.5 1.582.334.87.607 1.758.607 1.974 0 .216 1.328 1.08 2.95 1.918 3.762 1.946 8.736 1.938 12.489-.019 2.793-1.457 3.06-1.41 5.42.95 3.2 3.198 1.89 4.998-5.16 7.092-6.08 1.805-7.794 1.796-13.865-.072zM122 308.655c0-1.865-2.968-4.26-6.242-5.038-3.437-.816-9.216 1.502-10.713 4.298-1.092 2.042-.928 2.085 7.92 2.085 6.902 0 9.035-.318 9.035-1.345Zm26.235 21.365c-5.086-2.308-5.947-4.003-3.744-7.366 1.642-2.506 1.645-2.506 4.826-.678 6.72 3.864 14.683 3.336 14.683-.973 0-2.388-2.542-3.626-9.245-4.503-6.966-.912-10.755-4.435-10.755-10 0-3.576.519-4.759 3.005-6.85 4.968-4.18 14.18-4.614 21.253-1l2.758 1.41-2.158 2.918c-2.083 2.817-2.259 2.866-5.068 1.413-6.107-3.158-15.254.525-10.349 4.168 1.068.792 3.093 1.444 4.5 1.447 4.157.009 10.045 1.98 12.124 4.059 2.433 2.433 2.602 9.537.304 12.818-3.605 5.148-14.35 6.67-22.134 3.137zm79.189.018c-5.775-2.94-8.424-8.058-8.424-16.276 0-7.087 1.984-11.214 7.277-15.135 4.076-3.02 13.45-2.938 17.636.153 3.02 2.23 3.087 2.236 3.087.25 0-1.702.647-2.03 4-2.03h4v34h-4c-3.353 0-4-.328-4-2.03 0-2.008-.032-2.006-2.936.14-4.244 3.139-11.502 3.543-16.64.928zm16.08-8.452c6.862-6.861 2.672-17.586-6.87-17.586-3.748 0-4.867.489-7.045 3.077-5.83 6.93-1.473 16.923 7.38 16.923 3.024 0 4.765-.643 6.536-2.414zm117.92 8.452c-5.775-2.94-8.424-8.058-8.424-16.276 0-7.087 1.984-11.214 7.277-15.135 4.076-3.02 13.45-2.938 17.636.153 3.02 2.23 3.087 2.236 3.087.25 0-1.702.647-2.03 4-2.03h4v34h-4c-3.353 0-4-.328-4-2.03 0-2.008-.032-2.006-2.936.14-4.244 3.139-11.502 3.543-16.64.928zm16.055-8.426c3.246-3.247 4.135-8.523 2.1-12.46-2-3.866-4.352-5.152-9.424-5.152-5.3 0-9.155 4.275-9.155 10.154 0 8.492 10.633 13.304 16.48 7.458zM43 306.93v-24.07l15.43.32c17.653.366 19.276.983 23.377 8.879 3.834 7.383 1.212 16.604-5.602 19.7-2.038.925-3.882 1.797-4.098 1.938-.216.14 2.259 3.229 5.5 6.863 9.68 10.853 9.555 10.44 3.18 10.44H75.33l-6.83-8c-6.792-7.955-6.858-8-11.665-8H52v16h-9Zm27-1.224c3.688-1.865 5.473-6.149 4.023-9.651-1.612-3.89-4.852-5.055-14.07-5.055H52v16l7.75-.015c4.263-.008 8.875-.583 10.25-1.279zm122.766 22.378c-3.245-2.898-3.268-2.984-3.607-13.5L188.818 304h-2.909c-2.658 0-2.909-.302-2.909-3.5 0-3.222.238-3.5 3-3.5 2.889 0 3-.167 3-4.5V288h8v9h10v7h-10v7.777c0 9.475 1.635 12.682 5.98 11.727 2.464-.54 2.917-.237 3.915 2.626 1.41 4.041.409 4.834-6.13 4.855-3.828.012-5.358-.542-8-2.901zm82.533.956c-5.343-3.257-6.675-7.054-7.117-20.29l-.393-11.75H277v10.89c0 9.149.299 11.258 1.871 13.2 2.574 3.178 8.183 3.148 11.602-.064 2.4-2.256 2.527-2.915 2.527-13.2V297h9v34h-4c-3.333 0-4-.333-4-2 0-2.472-.178-2.472-4.226-.004-4.17 2.542-10.348 2.561-14.475.044zM317 314v-17h4c3.055 0 4 .39 4 1.655 0 1.525.148 1.521 1.876-.043 2.582-2.336 8.192-3.075 12.516-1.648 4.065 1.342 4.249 1.896 2.04 6.167-1.18 2.28-1.984 2.839-3.25 2.254-3.644-1.683-8.43-.799-10.839 2.002-2.134 2.481-2.343 3.656-2.343 13.169V331h-8zm87 0v-17h3.5c2.833 0 3.5.381 3.5 2 0 2.518.403 2.501 4.012-.167 3.616-2.674 10.128-2.862 14.817-.428 5.38 2.793 7.123 7.995 7.149 21.345L437 331h-8v-9.435c0-13.375-2.004-17.501-8.5-17.501-6.535 0-8.5 3.9-8.5 16.87V331h-8zm55.42 15.855c-4.087-1.983-5.42-5.98-5.42-16.26V304h-3c-2.762 0-3-.278-3-3.5s.238-3.5 3-3.5c2.889 0 3-.167 3-4.5V288h8v9h10v7h-10v8.429c0 9.701 1.303 12.103 6.007 11.07 2.433-.535 2.894-.223 3.888 2.63.876 2.513.846 3.418-.133 4.04-1.753 1.112-9.826.907-12.342-.314zM64.836 254.082c-6.671-2.608-10.657-5.73-13.955-10.93-4.574-7.213-3.533-14.409 3.463-23.94 6.69-9.113 20.665-18.048 31.926-20.41l5.77-1.21 3.036-10.046c1.67-5.525 3.23-10.632 3.469-11.348.555-1.672-.64-.931-7.527 4.663-3.016 2.45-9.314 6.293-13.997 8.54-6.941 3.33-9.808 4.149-15.518 4.43-17.453.862-30.875-11.171-36.189-32.444-2.68-10.727-2.36-36.65.622-50.387 8.86-40.82 29.736-72.363 54.848-82.874 22.471-9.404 50.864-.725 60.496 18.493 5.152 10.28 6.016 23.656 2.228 34.514-1.829 5.243-7.395 12.24-11.372 14.296-6.37 3.295-18.501 2.79-23.572-.981-1.874-1.395-1.757-1.811 3.7-13.194C118.822 67.576 121 60.648 121 53.466c0-12.64-11.037-17.67-24.03-10.95-5.166 2.67-13.998 11.718-19.47 19.942-14.812 22.26-24.489 52.13-24.497 75.61-.004 12.746 1.93 19.128 7.476 24.674 3.916 3.916 4.674 4.258 9.446 4.258 8.215 0 19.172-6.134 32.604-18.251l5.03-4.537 2.268-12.413c3.663-20.043 7.01-25.14 15.004-22.848 7.881 2.26 13.403 9.674 13.396 17.985-.005 5.697-5.588 28.485-12.759 52.08-3.007 9.895-5.468 18.214-5.468 18.487 0 .274 2.183.497 4.85.497 6.198 0 10.905 1.587 14.492 4.886 4.816 4.43 8.691 14.008 6.833 16.887-.641.994-2.013.753-6.248-1.096-6.27-2.737-12.153-4.26-19.927-5.161l-5.5-.638-2.731 6.811c-4.08 10.175-9.58 18.904-16.09 25.538-9.962 10.15-20.094 13.06-30.843 8.855zm9.972-15.832C79.532 233.251 87.55 216 85.15 216c-2.118 0-9.832 3.862-12.943 6.48-5.355 4.505-8.825 12.764-7.181 17.088 1.433 3.768 5.491 3.222 9.782-1.318zm141.812 6.882c-1.592-1.759-1.512-2.73 1.39-16.75A3180.2 3180.2 0 0 0 224.108 198l4.867-25c1.016-5.225 2.19-10.85 2.607-12.5l.76-2.998-3.677 2.804c-2.022 1.542-6.53 4.14-10.017 5.771-5.043 2.36-6.984 3.96-9.487 7.824-4.712 7.271-15.583 16.934-22.912 20.363-5.794 2.711-7.097 2.944-14.203 2.533-9.614-.557-17.006-3.86-22.866-10.218-8.403-9.115-11.632-19.156-11.605-36.079.02-12.285.916-15.864 5.2-20.75 1.729-1.971 6.334-2.297 9.385-.664 1.834.981 1.957.86 1.282-1.25-1.263-3.945-.742-13.418 1.032-18.759 3.836-11.547 16.368-23.4 27.587-26.092 24.206-5.807 44.887 14.229 44.916 43.515.006 6.182-2.36 18.81-4.45 23.75-2.414 5.704 7.327-3.687 11.734-11.313 1.847-3.196 3.777-10.418 6.901-25.825 5.105-25.17 5.158-25.254 14.54-23.154C262.444 91.467 266 94.607 266 99.055v3.146l5.526-5.05c8.192-7.488 17.287-11.651 25.453-11.651 8.034 0 11.762 2.29 15.027 9.234 10.907 23.192 2.844 68.592-15.423 86.845-7.09 7.084-12.62 9.421-22.293 9.421-7.018 0-11.033-1.351-17.752-5.974l-4.485-3.086-.532 2.28c-.967 4.143-5.368 27.043-8.023 41.747-1.437 7.957-3.15 15.115-3.805 15.908-4 4.834-19.647 7.043-23.073 3.257zm-28.927-69.61c5.499-5.678 6.417-7.522 3.744-7.522-3.316 0-12.854-5.647-18.91-11.196-3.484-3.192-6.662-5.804-7.064-5.804-1.425 0 .165 19.4 1.857 22.662 2.48 4.78 6.318 7.338 11.008 7.338 3.605 0 4.652-.612 9.365-5.479zm87.778-3.946c9.281-3.877 19.01-32.196 18.35-53.414-.308-9.909-.438-10.44-3.127-12.75-1.543-1.327-3.665-2.412-4.715-2.412-3.182 0-8.512 5.582-12.408 12.997-4.253 8.093-11.53 29.665-14.137 41.906l-1.79 8.402 2.811 2.24c2.637 2.104 7.426 4.122 10.327 4.353.705.056 2.815-.539 4.69-1.322zm-72.35-26.81c1.569-7.121 1.964-11.928 1.71-20.766-.293-10.189-.65-12.15-3.13-17.198-4.552-9.272-12.752-12.406-20.283-7.752-9.804 6.06-11.78 22.173-4.578 37.326 4.039 8.495 9.12 13.948 16.379 17.575 7.354 3.676 6.999 4.006 9.903-9.185zM430.5 195.64c-6.313-2.94-10.5-9.714-10.5-16.986 0-2.7-.386-2.445-7.029 4.668-4.346 4.655-9 8.51-12.196 10.102-12.106 6.033-22.699 1.165-25.949-11.925-.683-2.75-1.355-5.17-1.493-5.376-.138-.207-3.263 2.384-6.945 5.757C357.11 190.383 347.652 195 339.514 195c-8.233 0-11.999-2.47-16.014-10.5l-3-6 .061-18c.055-16.238.323-18.979 2.735-28 3.577-13.376 9.452-25.033 16.398-32.536 7.674-8.29 12.787-11.124 21.13-11.714 8.225-.582 13.54.784 20.026 5.149l4.994 3.36.594-2.367c1.684-6.712 25.357-10.38 28.545-4.423 1.102 2.058.34 4.844-6.84 25.031-6.695 18.824-11.133 35.77-11.783 45-.654 9.283.664 16.411 3.214 17.39 2.68 1.029 6.878-2.02 11.1-8.063 7.742-11.08 10.394-17.75 13.85-34.827 1.781-8.8 7.393-32.2 12.47-52 5.078-19.8 9.68-38.025 10.227-40.5.547-2.475 1.932-5.52 3.078-6.768 4.25-4.626 18.768-6.8 24.75-3.706 3.363 1.738 3.603 3.388 1.397 9.598-1.841 5.183-17.575 58.092-24.549 82.553-9.876 34.638-11.83 56.323-5.075 56.323 4.793 0 15.05-14.492 23.209-32.788 3.966-8.896 5.18-10.762 7.155-11.007 1.506-.187 3.223.601 4.675 2.147l2.295 2.443-7.018 14.627c-3.86 8.045-9.127 17.801-11.707 21.681-9.57 14.395-25.583 22.894-34.931 18.538zm-75.145-19.706c5.945-4.676 15.657-25.706 22.063-47.776 1.97-6.788 3.582-12.985 3.582-13.772 0-2.452-8.93-7.387-13.367-7.387-3.374 0-4.594.645-8.063 4.266-10.35 10.801-19.953 43.217-17.181 57.993 1.493 7.962 7.44 11.023 12.966 6.676z" transform="translate(-23.488 -24.314)"/></svg>
