<svg width="367.6421" height="143.2001"
   xmlns="http://www.w3.org/2000/svg">
   <path style="fill:#000" d="M16 166c0-3.0667.237-3.6 1.6-3.6 1.5453 0 1.6-.5333 1.6-15.6 0-14.7784-.0798-15.6-1.516-15.6-1.1874 0-1.5829-.7018-1.8248-3.2387-.2795-2.9308-.0404-3.44 2.516-5.358 1.5536-1.1655 5.0953-4.0281 7.8703-6.3613L31.2911 112h6.7544c5.4707 0 6.7545-.228 6.7545-1.2 0-.9353-1.1027-1.2069-5-1.2312l-5-.0312 4.5793-4.1688 4.5792-4.1688-2.3803-16.4c-1.3092-9.02-2.7399-17.0251-3.1793-17.7892-.4394-.764-.7989-2.9784-.7989-4.921 0-3.1109.3099-3.7295 2.6-5.1911 1.43-.9127 3.86-2.5475 5.4-3.633 2.4827-1.7498 3.6555-1.9787 10.3483-2.0196l7.5484-.0461 11.816-11.7924c6.4989-6.4859 12.5631-12.1258 13.4762-12.5332 1.3467-.601 2.1841-.2329 4.4356 1.9493 1.5265 1.4796 2.7745 3.2495 2.7734 3.9332-.0012.6837-3.4212 4.7617-7.6 9.0622-4.1789 4.3005-7.5979 8.1705-7.5979 8.6 0 .4818 6.1275.7809 16 .7809 11.8403 0 16-.2476 16-.9524 0-.5239-3.42-4.4334-7.6-8.688-4.18-4.2545-7.6-8.182-7.6-8.7276 0-1.28 5.1384-6.432 6.4152-6.432.5363 0 6.5361 5.49 13.3328 12.2l12.3578 12.2 8.566.4c7.4621.3484 8.8153.6321 10.499 2.2009 1.063.9905 3.122 2.6105 4.5756 3.6 2.357 1.6046 2.6433 2.2047 2.6481 5.5519.003 2.064-.3208 3.9544-.7195 4.2009-.3988.2464-.9649 2.3377-1.258 4.6472-.293 2.3095-.7132 4.836-.9337 5.6145-.3762 1.3282.7003 1.4022 17.4579 1.2L188.4 78l.5705-5.2c.3138-2.86.8538-7.54 1.2-10.4l.6295-5.2 8.0935-.2268 8.0934-.2268.4636 3.0268c.255 1.6647.7123 6.5368 1.0162 10.8268l.5525 7.8h3.4014c3.8195 0 3.7758.0916 4.7656-10 .2589-2.64.66-6.33.8913-8.2l.4205-3.4h7.9761c5.6634 0 8.0762.29 8.3214 1 .1898.55.7307 5.3063 1.2019 10.5695.506 5.6533 1.2457 9.8099 1.8072 10.157.671.4147.5455.7429-.427 1.116-.7619.2924-1.3776 1.3677-1.3776 2.4058v1.8771l46.7769-.0016c25.7272-.0009 46.9587-.296 47.181-.6558.2225-.3598-.2583-1.2539-1.0683-1.987-1.338-1.2107-5.5102-1.3292-45.5812-1.2946-29.3408.0254-44.1084-.2338-44.1084-.7741 0-.5398 14.7074-.8123 43.8446-.8123h43.8446l2.3903 1.8c1.3146.99 3.0946 2.446 3.9554 3.2357.8608.7896 3.1292 2.6796 5.0408 4.2s3.1716 2.7679 2.8 2.7723c-.3716.0044-25.8457.0943-56.609.2-43.8979.1507-56.005.4072-56.2666 1.192-.2647.794 11.6981 1 58.0467 1h58.3802l3.2452 2.6c1.7849 1.43 3.2638 2.87 3.2865 3.2.0227.33-27.6787.6-61.5587.6-49.3507 0-61.6.2026-61.6 1.0188 0 .8165 12.5969 1.015 63.4792 1l63.4791-.0187 4.6856 4 4.6856 4-12.9679.4c-18.0477.5567-16.913 1.8948 2.035 2.4l15.0034.4 7.6131 6.2839c7.4986 6.1894 7.6087 6.3308 7.316 9.4-.2308 2.4206-.6355 3.116-1.8131 3.116-1.4362 0-1.516.8216-1.516 15.6 0 15.0667.0547 15.6 1.6 15.6 1.363 0 1.6.5334 1.6 3.6v3.6H16Zm366.2532.2.253-2.2-18.453-.004c-10.1493-.002-54.8132-.004-99.2532-.004-262.6746 0-247.2183-.0754-247.7107 1.2077-.2533.66-.253 1.7408.0007 2.4017.4086 1.065 21.2056 1.1788 182.6856 1L382 168.3997zM51.8172 147 51.6 131.6H20.7548l-.1774 15.4004-.1774 15.4004 15.8173-.0004 15.8172-.0004zm131.2 0-.2172-15.4H53.2l-.2173 15.4-.2172 15.4h130.4691Zm32.1828-.2173v-15.6172l-15.4.2172-15.4.2173-.2173 15.4-.2172 15.4H215.2zM346.2173 147 346 131.6l-64.5672-.2047-64.5672-.2048-.2328 15.6056-.2328 15.6056 65.0173-.0009 65.0173-.0008zm32.8 0-.2173-15.4-15.3023-.217-15.3022-.2169-.4868 1.817c-.2678.9993-.4918 8.0269-.4978 15.6169l-.0109 13.8h32.0346zm3.2359-19.2.253-2.2H16.8v1.8667c0 1.0266.2408 2.1074.535 2.4017.2943.2943 82.4643.4443 182.6.3333L382 130ZM380 124.1128c0-.378-1.4721-1.908-3.2714-3.4s-3.6893-3.0805-4.2-3.5299c-5.1373-4.5202-4.4934-4.3829-20.5494-4.3829h-15.005l-3.8724 3.2-3.8725 3.2h-7.8085c-6.5731 0-8.0944-.2455-9.6147-1.5515-6.0238-5.1748-5.0544-4.8485-14.4057-4.8485h-8.7549l-3.6354 3.2-3.6354 3.2h-15.8876l-3.795-3.2-3.795-3.2h-14.9486c-12.4932 0-14.9485.1897-14.9485 1.1546 0 1.647 3.1675 3.6454 5.778 3.6454 1.2221 0 2.222.36 2.222.8 0 .4889-3.7333.8-9.6.8s-9.6-.3111-9.6-.8c0-.44.9999-.8 2.222-.8 2.6105 0 5.778-1.9984 5.778-3.6454 0-.9546-2.0701-1.1546-11.9528-1.1546-6.574 0-12.122.274-12.329.6088-.8364 1.3532 1.939 3.5511 5.003 3.962 6.1171.8206 2.3848 1.8292-6.7684 1.8292-9.1037 0-12.038-.9342-5.978-1.9032 2.9912-.4783 5.463-2.7923 4.2637-3.9916-.2778-.2779-11.4252-.5052-24.7718-.5052-23.5727 0-24.2667.0449-24.2667 1.5688 0 .8629-.7879 2.3029-1.7508 3.2-1.7209 1.6032-2.5573 1.6312-48.7624 1.6312-31.7752 0-47.6222-.2783-48.8959-.8586-1.0364-.4722-2.282-1.9122-2.7681-3.2-.875-2.3178-.9478-2.3414-7.2373-2.3414H32.232l-6.516 5.299c-3.5838 2.9145-6.516 5.6145-6.516 6 0 .3992 77.6644.701 180.4.701 99.9884 0 180.4-.3063 180.4-.6872zM67.5714 99.1508C65.3625 67.355 65.0695 65.6523 61.8 65.6122c-1.186-.0145-1.1942.5265-.158 10.3878.4391 4.18 1.4573 15.1066 2.2626 24.2813 1.0622 12.1022 1.7685 16.8694 2.573 17.3667.61.377 1.3862.4082 1.725.0695.3387-.3388.0547-8.6938-.6312-18.5667zm10.5261 14.9353C77.85 112.2787 77.278 102.88 76.8264 93.2c-.4516-9.68-1.0124-19.85-1.246-22.6-.2338-2.75-.1293-5 .2321-5s1.1127 9.27 1.6695 20.6c1.493 30.3799 1.6085 31.4 3.5531 31.4 1.5815 0 1.6049-.3123 1.0928-14.6-.2878-8.03-.7596-19.73-1.0485-26-.4003-8.6883-.2945-11.4.4449-11.4.5336 0 .7412.3704.4614.8231-.4859.7862.8077 35.707 1.7105 46.1769.3748 4.3465.643 5 2.0522 5 1.6049 0 1.6157-.2469 1.0747-24.6-.3006-13.53-.723-25.23-.9387-26-.2157-.77-.008-1.4.4617-1.4.5473 0 .8539 2.8256.8539 7.8707 0 4.3289.2374 16.0289.5276 26l.5276 18.1293h3.7233l-.5185-26c-.4033-20.2165-.3014-26 .458-26 .537 0 .7606.3491.497.7759-.2638.4267-.2283 12.1267.0788 26 .5262 23.7693.6434 25.2241 2.0323 25.2241 1.4016 0 1.4739-1.2749 1.4739-26 0-14.3.27-26.0002.6-26.0005.33-.0003.4958 11.6997.3685 26L96.7371 117.6H100.8l.0851-15.8c.1812-33.6477.272-36.1969 1.2898-36.1985.5362-.0008.835.4485.664.9985-.171.55-.5405 12.25-.821 26l-.51 25h3.8391l.5243-15c.2883-8.25.5252-19.95.5265-26 .002-7.5345.2824-11 .8915-11 .631 0 .7496 2.9626.4084 10.2-.2644 5.61-.7084 17.31-.9867 26l-.506 15.8h3.9992l.5114-19c.5957-22.1269 1.245-33 1.9706-33 .284 0 .2885 4.23.01 9.4-.2786 5.17-.7687 16.87-1.0893 26-.5752 16.388-.5617 16.6 1.0563 16.6 1.3299 0 1.7171-.6412 2.0533-3.4.349-2.8634 2.126-42.9147 2.0941-47.2-.006-.77.318-1.4.7193-1.4.4014 0 .5842 1.71.4064 3.8-.5535 6.503-1.9363 37.0461-1.9363 42.7631 0 4.812.175 5.4369 1.523 5.4369 1.3724 0 1.5717-.8504 2.0146-8.6.908-15.8841 2.99-42.9943 3.3278-43.332.815-.815.754 1.3322-.5085 17.932-.7363 9.68-1.5696 21.29-1.8518 25.8l-.5131 8.2h1.8912c1.8658 0 1.8985-.1424 2.4344-10.6.2987-5.83.8942-13.48 1.3232-17 .429-3.52 1.082-10.72 1.4513-16l.6713-9.6-2.114-2.2168-2.1138-2.2168-26.6516-.0526-26.6516-.0526-2.2918 2.1957c-1.7859 1.711-2.2197 2.7417-1.9652 4.6694.774 5.8625 3.5876 43.7652 3.6132 48.6737.0095 1.8359.3574 2.2 2.1022 2.2 1.9998 0 2.0705-.1481 1.6238-3.4-.2569-1.87-.869-11.32-1.3605-21-.4914-9.68-1.1577-19.85-1.4807-22.6-.323-2.75-.3176-5 .012-5 .7842 0 1.1553 4.115 2.7033 29.9776.814 13.6005 1.6196 21.7803 2.1789 22.126 2.038 1.2596 3.189-.2654 2.73-3.6175zm122.141 3.8087c.2779-.2778.1105-1.2427-.372-2.1442-.8422-1.5737-.9197-1.5808-1.9462-.177-.588.8042-.8793 1.769-.6474 2.1442.4938.799 2.2394.9032 2.9656.177zm28 0c.6243-.6242-.8386-3.4948-1.781-3.4948-.911 0-1.7823 2.3508-1.2129 3.2722.5174.8372 2.2505.966 2.994.2226zM50.3954 115.4c-.0025-1.21-.3606-4.36-.7957-7-.435-2.64-1.3287-9.3-1.986-14.8-.6572-5.5-1.5436-12.16-1.9698-14.8-.4261-2.64-.9957-6.5317-1.2656-8.6483-.4309-3.3783-.7038-3.818-2.2346-3.6-2.1043.2996-2.0858 1.595.2432 17.0483.8621 5.72 2.1395 14.72 2.8386 20 1.3974 10.5535 2.3998 14 4.0716 14 .671 0 1.101-.8616 1.0983-2.2zm4.789.4c-.0086-.99-.549-5.76-1.2008-10.6s-1.9015-15.2191-2.7771-23.0647c-.8756-7.8456-1.7965-14.5956-2.0465-15-.6775-1.0962-3.5455-.8885-3.6547.2647-.134 1.4134-.1918.868 1.2093 11.4.7024 5.28 2.0066 15.18 2.8982 22 2.1682 16.5844 2.2202 16.8 4.0508 16.8 1.0646 0 1.5316-.5527 1.5208-1.8zm4.4488-2c-.232-2.09-1.1567-10.1-2.0547-17.8-.898-7.7-1.8905-17.42-2.2056-21.6-.5594-7.4206-.6201-7.6-2.5729-7.6-1.245 0-1.9995.453-1.9988 1.2.0028 2.7199 2.2176 22.7513 3.6558 33.0641.8487 6.0853 1.543 12.2953 1.543 13.8 0 2.3949.2527 2.7359 2.0276 2.7359 1.9447 0 2.0103-.1552 1.6056-3.8zm4.075-4c-.672-9.9258-3.7109-41.0782-4.1362-42.4-.177-.55-1.1026-1-2.057-1-1.6908 0-1.7207.1785-1.1717 7 .3098 3.85 1.2277 12.94 2.0398 20.2.812 7.26 1.7167 15.63 2.0104 18.6.47 4.7537.7318 5.4 2.1883 5.4 1.5955 0 1.6356-.2776 1.1264-7.8zm64.6008 4c.5076-4.2007 2.441-24.5247 3.634-38.2.4223-4.84.488-9.0818.1461-9.4262-1.2138-1.223-3.2509.418-3.6042 2.9034-.4333 3.0474-3.7482 45.1398-3.711 47.1228.0155.8345.642 1.4 1.551 1.4 1.2215 0 1.6163-.7563 1.9841-3.8zm5.5512-7.6c.71-6.27 1.678-15.54 2.151-20.6.8897-9.5194 2.13-18.1392 2.2947-15.9482.1405 1.8689-2.9243 33.8946-3.8612 40.3482-1.1061 7.619-1.109 7.6 1.1553 7.6 1.1534 0 2-.4608 2-1.0885 0-1.8275 2.3367-22.573 4.0477-35.936.889-6.9434 1.4008-12.9734 1.1372-13.4-.6867-1.111-3.3666-.9576-3.9182.2245-.3734.8-.56.8-.9334 0-.5377-1.1524-3.2246-1.3467-3.8833-.2808-.2445.3955-.9764 7.3255-1.6265 15.4-1.0292 12.782-2.051 23.1461-3.2022 32.4808-.28 2.2706-.0883 2.6 1.5136 2.6 1.7663 0 1.8823-.4232 3.1253-11.4zm8.126 9.6c.229-.99 1.1242-7.56 1.9892-14.6s2.1173-16.76 2.783-21.6c1.701-12.3672 1.6581-13.3704-.5584-13.0556-1.699.2413-1.893.9733-3.4573 13.0556-.9114 7.04-2.1035 17.12-2.649 22.4-.5456 5.28-1.1958 10.95-1.445 12.6-.402 2.6615-.2628 3 1.2338 3 1.0927 0 1.8338-.6341 2.1036-1.8zm4.3346 0c.3747-.99.9315-4.14 1.2374-7 .306-2.86 1.0367-8.08 1.624-11.6.5873-3.52 1.497-9.64 2.0214-13.6.5245-3.96 1.2792-9.161 1.677-11.558.8123-4.8928.0414-6.6135-2.3026-5.1395-.967.6081-1.5607 2.512-1.9905 6.382-.3369 3.0335-1.1656 9.4755-1.8416 14.3155-1.7323 12.404-3.532 26.9453-3.5395 28.6-.009 2.021 2.311 1.723 3.1144-.4zm138.8985-1.5243c3.2925-2.8908 5.9807-7.675 5.9807-10.6438V101.6h-17.5528c-9.654 0-17.733.2917-17.9534.6483-1.0527 1.7032 1.5335 7.6445 4.7828 10.9878l3.4637 3.5639h9.202c9.1844 0 9.2075-.005 12.077-2.5243zm48.5302-.4757c3.4254-3.5753 5.4505-7.356 5.4505-10.1756v-2.055l-17.8.2153-17.8.2153.2832 2.4c.3911 3.3142 2.0461 6.276 5.3575 9.5873l2.8126 2.8127h18.822zm-136.3492-3.2c.2616-.7854-4.9066-1-24.0864-1-22.197 0-26.33.3173-24.7473 1.9.2877.2876 11.318.4278 24.5119.3115 18.3271-.1616 24.0674-.4475 24.3218-1.2115zm27.6016.2c.124-.501-4.5115-.8823-12.4019-1.0203-11.5014-.2011-13.6502.1034-12.0466 1.707.8785.8785 24.2233.2228 24.4485-.6867zm31.5989-.2c.2578-.7754-2.9167-1-14.1341-1-13.2533 0-15.4962.3038-13.9151 1.8849.3034.3034 6.6637.4534 14.134.3333 9.9956-.1606 13.6704-.4823 13.9152-1.2182zm48.1992.2c0-.9772-1.328-1.2-7.1528-1.2-6.5694 0-8.8146.5659-7.4921 1.8884.2814.2814 3.6916.5116 7.5782.5116 5.7482 0 7.0667-.2239 7.0667-1.2zm-260.2076-3.6c.1131-.66-.1141-1.6968-.505-2.304-.588-.9138-1.0663-.8448-2.7738.4-1.1348.8272-2.0746 1.9768-2.0885 2.5547-.0363 1.518 5.1026.895 5.3673-.6507zM197.2 105.6v-2.8l-23.103-.2124c-16.378-.1506-23.4224.0526-24.2.698-1.1471.952-1.4901 4.0546-.552 4.9927.2998.2998 11.1898.4498 24.2.3334L197.2 108.4Zm27.6889 2.4c.0489-.44.0889-1.52.0889-2.4 0-.88-.04-1.9694-.0889-2.4208-.0576-.5321-4.3803-.7432-12.2889-.6-12.082.2187-12.2025.2388-12.4633 2.079-.5713 4.0323-.2372 4.1418 12.6382 4.1418 7.4241 0 12.0591-.306 12.114-.8zm30.3111-.348c0-.6313-.351-2.0713-.7802-3.2l-.7802-2.052H228v2.6667c0 1.4666.24 2.9066.5333 3.2.2934.2933 6.4134.5333 13.6.5333 10.818 0 13.0667-.1976 13.0667-1.148zm48 0c0-.6313-.358-2.0893-.7954-3.24-.7474-1.9658-1.0734-2.0776-5.4-1.852l-4.6046.24-.2483 3-.2483 3h5.6483c4.3735 0 5.6483-.259 5.6483-1.148zm57.6.6048c0-.2988-1.3191-1.7515-2.9314-3.2283-2.9283-2.6822-2.9393-2.6848-10.2-2.4568L340.4 102.8l-.2483 3-.2483 3h10.4483c5.7466 0 10.4483-.2444 10.4483-.5432zM197.4003 100.6c-.2537-.762-5.7426-1.0507-23.0564-1.2128-12.4978-.117-23.2008-.0296-23.7843.1944-.5836.2239-.837.7696-.563 1.2128.792 1.2817 47.831 1.0888 47.4037-.1944zm27.6016-.2c.2075-.838-21.995-1.604-24.0158-.8286-.5981.2295-.8577.789-.577 1.2435.6749 1.0918 24.3185.693 24.5928-.4149zm-27.5488-4.6.2532-2.2H174.428c-19.9538 0-23.344.1714-23.7387 1.2-.2533.66-.2511 1.7455.005 2.4123.4034 1.0511 3.5258 1.184 23.4856 1L197.2003 98zm27.7513 1.7928c.2744-.4439.2714-1.5239-.007-2.4-.475-1.497-1.226-1.5928-12.4767-1.5928-9.903 0-12.0508.2073-12.4317 1.2-.2533.66-.2533 1.74 0 2.4.381.9927 2.5294 1.2 12.4384 1.2 7.1931 0 12.1771-.3224 12.4767-.8072zM348 97.6581c0-.4081-.9485-1.4881-2.1079-2.4-2.0884-1.6428-2.6434-1.6581-60-1.6581h-57.892v1.8667c0 1.0266.24 2.1066.5332 2.4C229.3808 98.714 348 98.507 348 97.658zM197.4 91.8c-.2562-.7686-5.5778-1-23-1s-22.7438.2314-23 1c-.2616.7848 4.6889 1 23 1s23.2616-.2152 23-1zm27.2 0c-.478-1.434-23.922-1.434-24.4 0-.2572.7716 2.5289 1 12.2 1s12.4572-.2284 12.2-1zM196 88c-.8238-1.5393-1.675-1.6-22.4281-1.6C152.5333 86.4 152 86.4396 152 88c0 1.562.5333 1.6 22.4281 1.6 22.1803 0 22.4187-.0177 21.572-1.6zm4.344.2c.2486-.77 1.502-1.9955 2.7853-2.7234 4.8406-2.7454 5.288-4.4367 4.238-16.0233-.5165-5.6981-1.1466-10.6962-1.4003-11.1068-.7138-1.1548-12.8257-.9316-13.7564.2535-.4319.55-1.2296 5.3628-1.7727 10.695-.8784 8.6244-.8444 9.9718.3079 12.2.7124 1.3778 1.6156 2.505 2.0071 2.505.3915 0 1.9123 1.2457 3.3795 2.7683 3.0669 3.1826 3.5892 3.3602 4.2116 1.4317zm23.656.76c0-2.0132-2.4-2.56-11.236-2.56-8.3 0-9.474.1745-10.764 1.6-1.4417 1.593-1.3973 1.6 10.276 1.6 6.4482 0 11.724-.288 11.724-.64zm3.9617-.8885c.45-.8407 2.0208-2.2718 3.4908-3.1804 4.2614-2.6336 4.6988-4.4415 3.665-15.15-.496-5.1376-1.2405-9.9853-1.6547-10.7727-.6465-1.2293-1.6796-1.399-7.3079-1.2L219.6 58l-.948 6.4c-.5213 3.52-.9713 8.6799-1 11.4664-.052 5.0592-.046 5.0723 4.148 9.3472 2.31 2.3545 4.4573 4.3047 4.7719 4.3337.3145.029.94-.6351 1.3898-1.4758zM337.2 88c-1.42-1.569-2.464-1.6-53.964-1.6-52.339 0-54.436.0986-54.436 2.56 0 .352 24.7158.64 54.924.64 54.8733 0 54.9226-.0015 53.476-1.6zm-148-6c0-1.5468-.605-1.6072-18.2-1.815-17.2596-.204-18.2-.1385-18.2 1.2666 0 .815.2264 1.7081.503 1.9848.2767.2766 8.4667.4266 18.2.3333 17.1071-.164 17.697-.223 17.697-1.7697zm28.1903.6292c.5665-1.6995-2.1048-3.278-5.0798-3.0014-3.2832.3051-4.7256 1.3364-4.1107 2.939.4991 1.3006 8.759 1.3567 9.1905.0624zM58.4 64.16c0-.792.426-1.866.9467-2.3867.5206-.5206.7385-1.1548.484-1.4092-.6173-.6174-19.4075-.72-20.3923-.1114-.4244.2622-.6108 1.5727-.4142 2.912l.3574 2.4353h9.5092c8.6237 0 9.5092-.1341 9.5092-1.44zm96.6507-1.56c.2506-2.5991.2494-2.6-3.6-2.6755-3.628-.071-16.6007-.044-18.1747.0378-.3982.0207-.1282.696.6 1.5007.7282.8046 1.324 2.0757 1.324 2.8246 0 1.2203 1.0172 1.3383 9.8 1.137l9.8-.2246zM94.4 32.7679c0-.6863-.4195-1.6674-.9322-2.18-.7095-.7096-1.19-.6045-2.0122.44-.9604 1.22-1.0248 1.1281-.5811-.8279 1.0315-4.548-2.446-2.294-13.4725 8.7326-6.013 6.0129-10.747 11.2329-10.52 11.6 1.1206 1.8132 3.8805-.0701 11.918-8.1326 4.825-4.84 9.135-8.8 9.5778-8.8.4428 0-5.4313 6.244-13.0536 13.8756-13.168 13.1842-13.7893 13.945-12.4667 15.2676 1.3225 1.3225 2.1431.6414 16.4672-13.6678C87.616 40.7926 94.4 33.4542 94.4 32.768Zm36.238 29.811c1.2058-1.3323.3282-2.3827-14.0513-16.8183-8.6844-8.7183-15.7819-15.2266-16.362-15.004-2.4957.9577-.133 4.108 13.5753 18.1005 8.03 8.1966 14.8142 14.9568 15.076 15.0228.2618.066 1.0548-.5194 1.762-1.301zM65.4 55.7273c1.43-1.3426 2.6-2.7305 2.6-3.0842C68 52.2894 63.9012 52 58.8914 52c-9.4495 0-10.6077.2978-15.5638 4.0024L40.655 58l9.8725.4c5.4298.22 10.4124.258 11.0724.0843.66-.1737 2.37-1.4143 3.8-2.757zm86.9563 2.7434c.2479-.4011-1.309-2.0211-3.46-3.6L144.9856 52h-9.6928c-5.331 0-9.6928.2894-9.6928.643 0 .3538 1.1754 1.7824 2.612 3.1748l2.612 2.5316 10.388.2514c5.7134.1383 10.4568.3297 10.5408.4253.084.0957.3556-.1543.6035-.5554zM120.8 57.683c0-.3944-1.2407-1.8065-2.757-3.1379l-2.757-2.4207-18.4936.0067-18.4935.0067-2.7495 2.414C74.0372 55.8796 72.8 57.2886 72.8 57.683c0 .407 10.3824.7171 24 .7171s24-.3102 24-.717zm5.9096-7.1367c.2223-.3596-4.5827-5.631-10.6777-11.7144-8.0118-7.9964-11.4446-10.9214-12.3914-10.558-2.0408.783-.7032 2.5265 10.1328 13.2066 9.0047 8.875 11.8304 10.8553 12.9363 9.0658z" transform="translate(-15.7681 -26.4)"/>
</svg>